<svg xmlns="http://www.w3.org/2000/svg" xmlns:xlink="http://www.w3.org/1999/xlink" width="500" zoomAndPan="magnify" viewBox="0 0 375 374.999991" height="500" preserveAspectRatio="xMidYMid meet" version="1.0"><defs><filter x="0%" y="0%" width="100%" height="100%" id="ba21b4931d"><feColorMatrix values="0 0 0 0 1 0 0 0 0 1 0 0 0 0 1 0 0 0 1 0" color-interpolation-filters="sRGB"/></filter><g/><clipPath id="84c3d2d108"><path d="M 128.652344 94.253906 L 253.644531 94.253906 L 253.644531 203.898438 L 128.652344 203.898438 Z M 128.652344 94.253906 " clip-rule="nonzero"/></clipPath><clipPath id="2631b91ce9"><path d="M 128.652344 126.601562 C 128.652344 161.425781 191.148438 203.898438 191.148438 203.898438 C 191.148438 203.898438 253.371094 161.125 253.644531 126.601562 C 253.644531 108.777344 239.121094 94.253906 221.296875 94.253906 C 207.597656 94.253906 195.800781 103.03125 191.148438 115.078125 C 186.5 103.03125 174.699219 94.253906 161 94.253906 C 143.175781 94.253906 128.652344 108.777344 128.652344 126.601562 " clip-rule="nonzero"/></clipPath><linearGradient x1="-0.0000270434" gradientTransform="matrix(0.249987, 0, 0, 0.24976, 128.652528, 94.254788)" y1="0" x2="499.999971" gradientUnits="userSpaceOnUse" y2="0" id="0893b75847"><stop stop-opacity="1" stop-color="rgb(80.39856%, 100%, 84.698486%)" offset="0"/><stop stop-opacity="1" stop-color="rgb(80.311584%, 99.891663%, 84.757996%)" offset="0.0078125"/><stop stop-opacity="1" stop-color="rgb(80.136108%, 99.676514%, 84.87854%)" offset="0.015625"/><stop stop-opacity="1" stop-color="rgb(79.960632%, 99.461365%, 84.997559%)" offset="0.0234375"/><stop stop-opacity="1" stop-color="rgb(79.786682%, 99.246216%, 85.116577%)" offset="0.03125"/><stop stop-opacity="1" stop-color="rgb(79.611206%, 99.032593%, 85.237122%)" offset="0.0390625"/><stop stop-opacity="1" stop-color="rgb(79.43573%, 98.817444%, 85.35614%)" offset="0.046875"/><stop stop-opacity="1" stop-color="rgb(79.26178%, 98.602295%, 85.476685%)" offset="0.0546875"/><stop stop-opacity="1" stop-color="rgb(79.086304%, 98.387146%, 85.595703%)" offset="0.0625"/><stop stop-opacity="1" stop-color="rgb(78.910828%, 98.171997%, 85.714722%)" offset="0.0703125"/><stop stop-opacity="1" stop-color="rgb(78.736877%, 97.958374%, 85.835266%)" offset="0.078125"/><stop stop-opacity="1" stop-color="rgb(78.561401%, 97.743225%, 85.954285%)" offset="0.0859375"/><stop stop-opacity="1" stop-color="rgb(78.385925%, 97.528076%, 86.073303%)" offset="0.09375"/><stop stop-opacity="1" stop-color="rgb(78.211975%, 97.312927%, 86.193848%)" offset="0.101563"/><stop stop-opacity="1" stop-color="rgb(78.036499%, 97.097778%, 86.312866%)" offset="0.109375"/><stop stop-opacity="1" stop-color="rgb(77.861023%, 96.884155%, 86.431885%)" offset="0.117188"/><stop stop-opacity="1" stop-color="rgb(77.685547%, 96.669006%, 86.552429%)" offset="0.125"/><stop stop-opacity="1" stop-color="rgb(77.511597%, 96.453857%, 86.671448%)" offset="0.132812"/><stop stop-opacity="1" stop-color="rgb(77.336121%, 96.238708%, 86.790466%)" offset="0.140625"/><stop stop-opacity="1" stop-color="rgb(77.160645%, 96.02356%, 86.911011%)" offset="0.148438"/><stop stop-opacity="1" stop-color="rgb(76.986694%, 95.809937%, 87.030029%)" offset="0.15625"/><stop stop-opacity="1" stop-color="rgb(76.811218%, 95.594788%, 87.149048%)" offset="0.164062"/><stop stop-opacity="1" stop-color="rgb(76.635742%, 95.379639%, 87.269592%)" offset="0.171875"/><stop stop-opacity="1" stop-color="rgb(76.461792%, 95.16449%, 87.388611%)" offset="0.179688"/><stop stop-opacity="1" stop-color="rgb(76.286316%, 94.949341%, 87.507629%)" offset="0.1875"/><stop stop-opacity="1" stop-color="rgb(76.11084%, 94.735718%, 87.628174%)" offset="0.195312"/><stop stop-opacity="1" stop-color="rgb(75.93689%, 94.520569%, 87.747192%)" offset="0.203125"/><stop stop-opacity="1" stop-color="rgb(75.761414%, 94.30542%, 87.866211%)" offset="0.210938"/><stop stop-opacity="1" stop-color="rgb(75.585938%, 94.090271%, 87.986755%)" offset="0.21875"/><stop stop-opacity="1" stop-color="rgb(75.410461%, 93.875122%, 88.105774%)" offset="0.226562"/><stop stop-opacity="1" stop-color="rgb(75.236511%, 93.661499%, 88.224792%)" offset="0.234375"/><stop stop-opacity="1" stop-color="rgb(75.061035%, 93.44635%, 88.345337%)" offset="0.242188"/><stop stop-opacity="1" stop-color="rgb(74.885559%, 93.231201%, 88.464355%)" offset="0.25"/><stop stop-opacity="1" stop-color="rgb(74.711609%, 93.016052%, 88.583374%)" offset="0.257812"/><stop stop-opacity="1" stop-color="rgb(74.536133%, 92.800903%, 88.703918%)" offset="0.265625"/><stop stop-opacity="1" stop-color="rgb(74.360657%, 92.58728%, 88.822937%)" offset="0.273438"/><stop stop-opacity="1" stop-color="rgb(74.186707%, 92.372131%, 88.941956%)" offset="0.28125"/><stop stop-opacity="1" stop-color="rgb(74.01123%, 92.156982%, 89.0625%)" offset="0.289062"/><stop stop-opacity="1" stop-color="rgb(73.835754%, 91.941833%, 89.181519%)" offset="0.296875"/><stop stop-opacity="1" stop-color="rgb(73.661804%, 91.726685%, 89.300537%)" offset="0.304688"/><stop stop-opacity="1" stop-color="rgb(73.486328%, 91.513062%, 89.421082%)" offset="0.3125"/><stop stop-opacity="1" stop-color="rgb(73.310852%, 91.297913%, 89.5401%)" offset="0.320312"/><stop stop-opacity="1" stop-color="rgb(73.136902%, 91.082764%, 89.659119%)" offset="0.328125"/><stop stop-opacity="1" stop-color="rgb(72.961426%, 90.867615%, 89.779663%)" offset="0.335938"/><stop stop-opacity="1" stop-color="rgb(72.78595%, 90.652466%, 89.898682%)" offset="0.34375"/><stop stop-opacity="1" stop-color="rgb(72.610474%, 90.438843%, 90.0177%)" offset="0.351562"/><stop stop-opacity="1" stop-color="rgb(72.436523%, 90.223694%, 90.138245%)" offset="0.359375"/><stop stop-opacity="1" stop-color="rgb(72.261047%, 90.008545%, 90.257263%)" offset="0.367188"/><stop stop-opacity="1" stop-color="rgb(72.085571%, 89.793396%, 90.376282%)" offset="0.375"/><stop stop-opacity="1" stop-color="rgb(71.911621%, 89.578247%, 90.496826%)" offset="0.382812"/><stop stop-opacity="1" stop-color="rgb(71.736145%, 89.364624%, 90.615845%)" offset="0.390625"/><stop stop-opacity="1" stop-color="rgb(71.560669%, 89.149475%, 90.734863%)" offset="0.398438"/><stop stop-opacity="1" stop-color="rgb(71.386719%, 88.934326%, 90.855408%)" offset="0.40625"/><stop stop-opacity="1" stop-color="rgb(71.211243%, 88.719177%, 90.974426%)" offset="0.414062"/><stop stop-opacity="1" stop-color="rgb(71.035767%, 88.504028%, 91.093445%)" offset="0.421875"/><stop stop-opacity="1" stop-color="rgb(70.861816%, 88.290405%, 91.213989%)" offset="0.429688"/><stop stop-opacity="1" stop-color="rgb(70.68634%, 88.075256%, 91.333008%)" offset="0.4375"/><stop stop-opacity="1" stop-color="rgb(70.510864%, 87.860107%, 91.452026%)" offset="0.445312"/><stop stop-opacity="1" stop-color="rgb(70.336914%, 87.644958%, 91.572571%)" offset="0.453125"/><stop stop-opacity="1" stop-color="rgb(70.161438%, 87.42981%, 91.691589%)" offset="0.460938"/><stop stop-opacity="1" stop-color="rgb(69.985962%, 87.216187%, 91.810608%)" offset="0.46875"/><stop stop-opacity="1" stop-color="rgb(69.810486%, 87.001038%, 91.931152%)" offset="0.476562"/><stop stop-opacity="1" stop-color="rgb(69.636536%, 86.785889%, 92.050171%)" offset="0.484375"/><stop stop-opacity="1" stop-color="rgb(69.46106%, 86.57074%, 92.169189%)" offset="0.492188"/><stop stop-opacity="1" stop-color="rgb(69.285583%, 86.355591%, 92.289734%)" offset="0.5"/><stop stop-opacity="1" stop-color="rgb(69.111633%, 86.141968%, 92.408752%)" offset="0.507812"/><stop stop-opacity="1" stop-color="rgb(68.936157%, 85.926819%, 92.527771%)" offset="0.515625"/><stop stop-opacity="1" stop-color="rgb(68.760681%, 85.71167%, 92.648315%)" offset="0.523438"/><stop stop-opacity="1" stop-color="rgb(68.586731%, 85.496521%, 92.767334%)" offset="0.53125"/><stop stop-opacity="1" stop-color="rgb(68.411255%, 85.281372%, 92.886353%)" offset="0.539062"/><stop stop-opacity="1" stop-color="rgb(68.235779%, 85.067749%, 93.006897%)" offset="0.546875"/><stop stop-opacity="1" stop-color="rgb(68.061829%, 84.8526%, 93.125916%)" offset="0.554688"/><stop stop-opacity="1" stop-color="rgb(67.886353%, 84.637451%, 93.244934%)" offset="0.5625"/><stop stop-opacity="1" stop-color="rgb(67.710876%, 84.422302%, 93.365479%)" offset="0.570312"/><stop stop-opacity="1" stop-color="rgb(67.536926%, 84.207153%, 93.484497%)" offset="0.578125"/><stop stop-opacity="1" stop-color="rgb(67.36145%, 83.99353%, 93.603516%)" offset="0.585938"/><stop stop-opacity="1" stop-color="rgb(67.185974%, 83.778381%, 93.72406%)" offset="0.59375"/><stop stop-opacity="1" stop-color="rgb(67.010498%, 83.563232%, 93.843079%)" offset="0.601562"/><stop stop-opacity="1" stop-color="rgb(66.836548%, 83.348083%, 93.962097%)" offset="0.609375"/><stop stop-opacity="1" stop-color="rgb(66.661072%, 83.132935%, 94.082642%)" offset="0.617188"/><stop stop-opacity="1" stop-color="rgb(66.485596%, 82.919312%, 94.20166%)" offset="0.625"/><stop stop-opacity="1" stop-color="rgb(66.311646%, 82.704163%, 94.320679%)" offset="0.632812"/><stop stop-opacity="1" stop-color="rgb(66.136169%, 82.489014%, 94.441223%)" offset="0.640625"/><stop stop-opacity="1" stop-color="rgb(65.960693%, 82.273865%, 94.560242%)" offset="0.648438"/><stop stop-opacity="1" stop-color="rgb(65.786743%, 82.058716%, 94.67926%)" offset="0.65625"/><stop stop-opacity="1" stop-color="rgb(65.611267%, 81.845093%, 94.799805%)" offset="0.664062"/><stop stop-opacity="1" stop-color="rgb(65.435791%, 81.629944%, 94.918823%)" offset="0.671875"/><stop stop-opacity="1" stop-color="rgb(65.261841%, 81.414795%, 95.037842%)" offset="0.679688"/><stop stop-opacity="1" stop-color="rgb(65.086365%, 81.199646%, 95.158386%)" offset="0.6875"/><stop stop-opacity="1" stop-color="rgb(64.910889%, 80.984497%, 95.277405%)" offset="0.695312"/><stop stop-opacity="1" stop-color="rgb(64.736938%, 80.770874%, 95.396423%)" offset="0.703125"/><stop stop-opacity="1" stop-color="rgb(64.561462%, 80.555725%, 95.516968%)" offset="0.710938"/><stop stop-opacity="1" stop-color="rgb(64.385986%, 80.340576%, 95.635986%)" offset="0.71875"/><stop stop-opacity="1" stop-color="rgb(64.21051%, 80.125427%, 95.755005%)" offset="0.726562"/><stop stop-opacity="1" stop-color="rgb(64.03656%, 79.910278%, 95.875549%)" offset="0.734375"/><stop stop-opacity="1" stop-color="rgb(63.861084%, 79.696655%, 95.994568%)" offset="0.742188"/><stop stop-opacity="1" stop-color="rgb(63.685608%, 79.481506%, 96.113586%)" offset="0.75"/><stop stop-opacity="1" stop-color="rgb(63.511658%, 79.266357%, 96.234131%)" offset="0.757812"/><stop stop-opacity="1" stop-color="rgb(63.336182%, 79.051208%, 96.353149%)" offset="0.765625"/><stop stop-opacity="1" stop-color="rgb(63.160706%, 78.83606%, 96.472168%)" offset="0.773438"/><stop stop-opacity="1" stop-color="rgb(62.986755%, 78.622437%, 96.592712%)" offset="0.78125"/><stop stop-opacity="1" stop-color="rgb(62.811279%, 78.407288%, 96.711731%)" offset="0.789062"/><stop stop-opacity="1" stop-color="rgb(62.635803%, 78.192139%, 96.83075%)" offset="0.796875"/><stop stop-opacity="1" stop-color="rgb(62.461853%, 77.97699%, 96.951294%)" offset="0.804688"/><stop stop-opacity="1" stop-color="rgb(62.286377%, 77.761841%, 97.070312%)" offset="0.8125"/><stop stop-opacity="1" stop-color="rgb(62.110901%, 77.548218%, 97.189331%)" offset="0.820312"/><stop stop-opacity="1" stop-color="rgb(61.936951%, 77.333069%, 97.309875%)" offset="0.828125"/><stop stop-opacity="1" stop-color="rgb(61.761475%, 77.11792%, 97.428894%)" offset="0.835938"/><stop stop-opacity="1" stop-color="rgb(61.585999%, 76.902771%, 97.547913%)" offset="0.84375"/><stop stop-opacity="1" stop-color="rgb(61.410522%, 76.687622%, 97.668457%)" offset="0.851562"/><stop stop-opacity="1" stop-color="rgb(61.236572%, 76.473999%, 97.787476%)" offset="0.859375"/><stop stop-opacity="1" stop-color="rgb(61.061096%, 76.25885%, 97.906494%)" offset="0.867188"/><stop stop-opacity="1" stop-color="rgb(60.88562%, 76.043701%, 98.027039%)" offset="0.875"/><stop stop-opacity="1" stop-color="rgb(60.71167%, 75.828552%, 98.146057%)" offset="0.882812"/><stop stop-opacity="1" stop-color="rgb(60.536194%, 75.613403%, 98.265076%)" offset="0.890625"/><stop stop-opacity="1" stop-color="rgb(60.360718%, 75.39978%, 98.38562%)" offset="0.898438"/><stop stop-opacity="1" stop-color="rgb(60.186768%, 75.184631%, 98.504639%)" offset="0.90625"/><stop stop-opacity="1" stop-color="rgb(60.011292%, 74.969482%, 98.623657%)" offset="0.914062"/><stop stop-opacity="1" stop-color="rgb(59.835815%, 74.754333%, 98.744202%)" offset="0.921875"/><stop stop-opacity="1" stop-color="rgb(59.661865%, 74.539185%, 98.86322%)" offset="0.929688"/><stop stop-opacity="1" stop-color="rgb(59.486389%, 74.325562%, 98.982239%)" offset="0.9375"/><stop stop-opacity="1" stop-color="rgb(59.310913%, 74.110413%, 99.102783%)" offset="0.945312"/><stop stop-opacity="1" stop-color="rgb(59.136963%, 73.895264%, 99.221802%)" offset="0.953125"/><stop stop-opacity="1" stop-color="rgb(58.961487%, 73.680115%, 99.34082%)" offset="0.960938"/><stop stop-opacity="1" stop-color="rgb(58.786011%, 73.464966%, 99.461365%)" offset="0.96875"/><stop stop-opacity="1" stop-color="rgb(58.610535%, 73.251343%, 99.580383%)" offset="0.976562"/><stop stop-opacity="1" stop-color="rgb(58.436584%, 73.036194%, 99.699402%)" offset="0.984375"/><stop stop-opacity="1" stop-color="rgb(58.261108%, 72.821045%, 99.819946%)" offset="0.992188"/><stop stop-opacity="1" stop-color="rgb(58.085632%, 72.605896%, 99.938965%)" offset="1"/></linearGradient><mask id="b27f243a73"><g filter="url(#ba21b4931d)"><rect x="-37.5" width="450" fill="#000000" y="-37.499999" height="449.999989" fill-opacity="0.8196"/></g></mask><clipPath id="14018af8d7"><path d="M 0.410156 0.640625 L 99.886719 0.640625 L 99.886719 87.898438 L 0.410156 87.898438 Z M 0.410156 0.640625 " clip-rule="nonzero"/></clipPath><clipPath id="d305872411"><path d="M 0.410156 26.382812 C 0.410156 54.097656 50.148438 87.898438 50.148438 87.898438 C 50.148438 87.898438 99.667969 53.859375 99.886719 26.382812 C 99.886719 12.199219 88.328125 0.640625 74.144531 0.640625 C 63.242188 0.640625 53.851562 7.621094 50.148438 17.210938 C 46.449219 7.621094 37.058594 0.640625 26.15625 0.640625 C 11.96875 0.640625 0.410156 12.199219 0.410156 26.382812 " clip-rule="nonzero"/></clipPath><linearGradient x1="0" gradientTransform="matrix(0.198951, 0, 0, 0.19877, 0.411543, 0.639216)" y1="0" x2="499.999988" gradientUnits="userSpaceOnUse" y2="0" id="0f0c2f317b"><stop stop-opacity="1" stop-color="rgb(100%, 96.899414%, 67.799377%)" offset="0"/><stop stop-opacity="1" stop-color="rgb(100%, 96.77887%, 67.915344%)" offset="0.0078125"/><stop stop-opacity="1" stop-color="rgb(100%, 96.540833%, 68.147278%)" offset="0.015625"/><stop stop-opacity="1" stop-color="rgb(100%, 96.30127%, 68.380737%)" offset="0.0234375"/><stop stop-opacity="1" stop-color="rgb(100%, 96.061707%, 68.614197%)" offset="0.03125"/><stop stop-opacity="1" stop-color="rgb(100%, 95.823669%, 68.84613%)" offset="0.0390625"/><stop stop-opacity="1" stop-color="rgb(100%, 95.584106%, 69.07959%)" offset="0.046875"/><stop stop-opacity="1" stop-color="rgb(100%, 95.344543%, 69.311523%)" offset="0.0546875"/><stop stop-opacity="1" stop-color="rgb(100%, 95.106506%, 69.544983%)" offset="0.0625"/><stop stop-opacity="1" stop-color="rgb(100%, 94.866943%, 69.778442%)" offset="0.0703125"/><stop stop-opacity="1" stop-color="rgb(100%, 94.62738%, 70.010376%)" offset="0.078125"/><stop stop-opacity="1" stop-color="rgb(100%, 94.387817%, 70.243835%)" offset="0.0859375"/><stop stop-opacity="1" stop-color="rgb(100%, 94.14978%, 70.475769%)" offset="0.09375"/><stop stop-opacity="1" stop-color="rgb(100%, 93.910217%, 70.709229%)" offset="0.101562"/><stop stop-opacity="1" stop-color="rgb(100%, 93.670654%, 70.941162%)" offset="0.109375"/><stop stop-opacity="1" stop-color="rgb(100%, 93.432617%, 71.174622%)" offset="0.117188"/><stop stop-opacity="1" stop-color="rgb(100%, 93.193054%, 71.408081%)" offset="0.125"/><stop stop-opacity="1" stop-color="rgb(100%, 92.953491%, 71.640015%)" offset="0.132812"/><stop stop-opacity="1" stop-color="rgb(100%, 92.715454%, 71.873474%)" offset="0.140625"/><stop stop-opacity="1" stop-color="rgb(100%, 92.475891%, 72.105408%)" offset="0.148438"/><stop stop-opacity="1" stop-color="rgb(100%, 92.236328%, 72.338867%)" offset="0.15625"/><stop stop-opacity="1" stop-color="rgb(100%, 91.998291%, 72.570801%)" offset="0.164063"/><stop stop-opacity="1" stop-color="rgb(100%, 91.758728%, 72.80426%)" offset="0.171875"/><stop stop-opacity="1" stop-color="rgb(100%, 91.519165%, 73.03772%)" offset="0.179688"/><stop stop-opacity="1" stop-color="rgb(100%, 91.281128%, 73.269653%)" offset="0.1875"/><stop stop-opacity="1" stop-color="rgb(100%, 91.041565%, 73.503113%)" offset="0.195312"/><stop stop-opacity="1" stop-color="rgb(100%, 90.802002%, 73.735046%)" offset="0.203125"/><stop stop-opacity="1" stop-color="rgb(100%, 90.563965%, 73.968506%)" offset="0.210937"/><stop stop-opacity="1" stop-color="rgb(100%, 90.324402%, 74.200439%)" offset="0.21875"/><stop stop-opacity="1" stop-color="rgb(100%, 90.084839%, 74.433899%)" offset="0.226562"/><stop stop-opacity="1" stop-color="rgb(100%, 89.846802%, 74.667358%)" offset="0.234375"/><stop stop-opacity="1" stop-color="rgb(100%, 89.607239%, 74.899292%)" offset="0.242188"/><stop stop-opacity="1" stop-color="rgb(100%, 89.367676%, 75.132751%)" offset="0.25"/><stop stop-opacity="1" stop-color="rgb(100%, 89.129639%, 75.364685%)" offset="0.257812"/><stop stop-opacity="1" stop-color="rgb(100%, 88.890076%, 75.598145%)" offset="0.265625"/><stop stop-opacity="1" stop-color="rgb(100%, 88.650513%, 75.830078%)" offset="0.273438"/><stop stop-opacity="1" stop-color="rgb(100%, 88.412476%, 76.063538%)" offset="0.28125"/><stop stop-opacity="1" stop-color="rgb(100%, 88.172913%, 76.296997%)" offset="0.289062"/><stop stop-opacity="1" stop-color="rgb(100%, 87.93335%, 76.528931%)" offset="0.296875"/><stop stop-opacity="1" stop-color="rgb(100%, 87.695312%, 76.76239%)" offset="0.304688"/><stop stop-opacity="1" stop-color="rgb(100%, 87.45575%, 76.994324%)" offset="0.3125"/><stop stop-opacity="1" stop-color="rgb(100%, 87.216187%, 77.227783%)" offset="0.320312"/><stop stop-opacity="1" stop-color="rgb(100%, 86.978149%, 77.461243%)" offset="0.328125"/><stop stop-opacity="1" stop-color="rgb(100%, 86.738586%, 77.693176%)" offset="0.335938"/><stop stop-opacity="1" stop-color="rgb(100%, 86.499023%, 77.926636%)" offset="0.34375"/><stop stop-opacity="1" stop-color="rgb(100%, 86.260986%, 78.158569%)" offset="0.351562"/><stop stop-opacity="1" stop-color="rgb(100%, 86.021423%, 78.392029%)" offset="0.359375"/><stop stop-opacity="1" stop-color="rgb(100%, 85.78186%, 78.623962%)" offset="0.367187"/><stop stop-opacity="1" stop-color="rgb(100%, 85.543823%, 78.857422%)" offset="0.375"/><stop stop-opacity="1" stop-color="rgb(100%, 85.30426%, 79.090881%)" offset="0.382813"/><stop stop-opacity="1" stop-color="rgb(100%, 85.064697%, 79.322815%)" offset="0.390625"/><stop stop-opacity="1" stop-color="rgb(100%, 84.82666%, 79.556274%)" offset="0.398438"/><stop stop-opacity="1" stop-color="rgb(100%, 84.587097%, 79.788208%)" offset="0.40625"/><stop stop-opacity="1" stop-color="rgb(100%, 84.347534%, 80.021667%)" offset="0.414062"/><stop stop-opacity="1" stop-color="rgb(100%, 84.109497%, 80.253601%)" offset="0.421875"/><stop stop-opacity="1" stop-color="rgb(100%, 83.869934%, 80.487061%)" offset="0.429688"/><stop stop-opacity="1" stop-color="rgb(100%, 83.630371%, 80.72052%)" offset="0.4375"/><stop stop-opacity="1" stop-color="rgb(100%, 83.392334%, 80.952454%)" offset="0.445312"/><stop stop-opacity="1" stop-color="rgb(100%, 83.152771%, 81.185913%)" offset="0.453125"/><stop stop-opacity="1" stop-color="rgb(100%, 82.913208%, 81.417847%)" offset="0.460938"/><stop stop-opacity="1" stop-color="rgb(100%, 82.675171%, 81.651306%)" offset="0.46875"/><stop stop-opacity="1" stop-color="rgb(100%, 82.435608%, 81.88324%)" offset="0.476562"/><stop stop-opacity="1" stop-color="rgb(100%, 82.196045%, 82.116699%)" offset="0.484375"/><stop stop-opacity="1" stop-color="rgb(100%, 81.958008%, 82.350159%)" offset="0.492188"/><stop stop-opacity="1" stop-color="rgb(100%, 81.718445%, 82.582092%)" offset="0.5"/><stop stop-opacity="1" stop-color="rgb(100%, 81.478882%, 82.815552%)" offset="0.507812"/><stop stop-opacity="1" stop-color="rgb(100%, 81.240845%, 83.047485%)" offset="0.515625"/><stop stop-opacity="1" stop-color="rgb(100%, 81.001282%, 83.280945%)" offset="0.523437"/><stop stop-opacity="1" stop-color="rgb(100%, 80.761719%, 83.512878%)" offset="0.53125"/><stop stop-opacity="1" stop-color="rgb(100%, 80.523682%, 83.746338%)" offset="0.539063"/><stop stop-opacity="1" stop-color="rgb(100%, 80.284119%, 83.979797%)" offset="0.546875"/><stop stop-opacity="1" stop-color="rgb(100%, 80.044556%, 84.211731%)" offset="0.554688"/><stop stop-opacity="1" stop-color="rgb(100%, 79.806519%, 84.44519%)" offset="0.5625"/><stop stop-opacity="1" stop-color="rgb(100%, 79.566956%, 84.677124%)" offset="0.570312"/><stop stop-opacity="1" stop-color="rgb(100%, 79.327393%, 84.910583%)" offset="0.578125"/><stop stop-opacity="1" stop-color="rgb(100%, 79.08783%, 85.144043%)" offset="0.585938"/><stop stop-opacity="1" stop-color="rgb(100%, 78.849792%, 85.375977%)" offset="0.59375"/><stop stop-opacity="1" stop-color="rgb(100%, 78.610229%, 85.609436%)" offset="0.601563"/><stop stop-opacity="1" stop-color="rgb(100%, 78.370667%, 85.84137%)" offset="0.609375"/><stop stop-opacity="1" stop-color="rgb(100%, 78.132629%, 86.074829%)" offset="0.617188"/><stop stop-opacity="1" stop-color="rgb(100%, 77.893066%, 86.306763%)" offset="0.625"/><stop stop-opacity="1" stop-color="rgb(100%, 77.653503%, 86.540222%)" offset="0.632812"/><stop stop-opacity="1" stop-color="rgb(100%, 77.415466%, 86.773682%)" offset="0.640625"/><stop stop-opacity="1" stop-color="rgb(100%, 77.175903%, 87.005615%)" offset="0.648438"/><stop stop-opacity="1" stop-color="rgb(100%, 76.93634%, 87.239075%)" offset="0.65625"/><stop stop-opacity="1" stop-color="rgb(100%, 76.698303%, 87.471008%)" offset="0.664063"/><stop stop-opacity="1" stop-color="rgb(100%, 76.45874%, 87.704468%)" offset="0.671875"/><stop stop-opacity="1" stop-color="rgb(100%, 76.219177%, 87.936401%)" offset="0.679688"/><stop stop-opacity="1" stop-color="rgb(100%, 75.98114%, 88.169861%)" offset="0.6875"/><stop stop-opacity="1" stop-color="rgb(100%, 75.741577%, 88.40332%)" offset="0.695313"/><stop stop-opacity="1" stop-color="rgb(100%, 75.502014%, 88.635254%)" offset="0.703125"/><stop stop-opacity="1" stop-color="rgb(100%, 75.263977%, 88.868713%)" offset="0.710938"/><stop stop-opacity="1" stop-color="rgb(100%, 75.024414%, 89.100647%)" offset="0.71875"/><stop stop-opacity="1" stop-color="rgb(100%, 74.784851%, 89.334106%)" offset="0.726562"/><stop stop-opacity="1" stop-color="rgb(100%, 74.546814%, 89.56604%)" offset="0.734375"/><stop stop-opacity="1" stop-color="rgb(100%, 74.307251%, 89.7995%)" offset="0.742187"/><stop stop-opacity="1" stop-color="rgb(100%, 74.067688%, 90.032959%)" offset="0.75"/><stop stop-opacity="1" stop-color="rgb(100%, 73.829651%, 90.264893%)" offset="0.757813"/><stop stop-opacity="1" stop-color="rgb(100%, 73.590088%, 90.498352%)" offset="0.765625"/><stop stop-opacity="1" stop-color="rgb(100%, 73.350525%, 90.730286%)" offset="0.773438"/><stop stop-opacity="1" stop-color="rgb(100%, 73.112488%, 90.963745%)" offset="0.78125"/><stop stop-opacity="1" stop-color="rgb(100%, 72.872925%, 91.197205%)" offset="0.789062"/><stop stop-opacity="1" stop-color="rgb(100%, 72.633362%, 91.429138%)" offset="0.796875"/><stop stop-opacity="1" stop-color="rgb(100%, 72.395325%, 91.662598%)" offset="0.804687"/><stop stop-opacity="1" stop-color="rgb(100%, 72.155762%, 91.894531%)" offset="0.8125"/><stop stop-opacity="1" stop-color="rgb(100%, 71.916199%, 92.127991%)" offset="0.820312"/><stop stop-opacity="1" stop-color="rgb(100%, 71.678162%, 92.359924%)" offset="0.828125"/><stop stop-opacity="1" stop-color="rgb(100%, 71.438599%, 92.593384%)" offset="0.835937"/><stop stop-opacity="1" stop-color="rgb(100%, 71.199036%, 92.826843%)" offset="0.84375"/><stop stop-opacity="1" stop-color="rgb(100%, 70.960999%, 93.058777%)" offset="0.851562"/><stop stop-opacity="1" stop-color="rgb(100%, 70.721436%, 93.292236%)" offset="0.859375"/><stop stop-opacity="1" stop-color="rgb(100%, 70.481873%, 93.52417%)" offset="0.867188"/><stop stop-opacity="1" stop-color="rgb(100%, 70.243835%, 93.757629%)" offset="0.875"/><stop stop-opacity="1" stop-color="rgb(100%, 70.004272%, 93.989563%)" offset="0.882812"/><stop stop-opacity="1" stop-color="rgb(100%, 69.764709%, 94.223022%)" offset="0.890625"/><stop stop-opacity="1" stop-color="rgb(100%, 69.526672%, 94.456482%)" offset="0.898437"/><stop stop-opacity="1" stop-color="rgb(100%, 69.287109%, 94.688416%)" offset="0.90625"/><stop stop-opacity="1" stop-color="rgb(100%, 69.047546%, 94.921875%)" offset="0.914062"/><stop stop-opacity="1" stop-color="rgb(100%, 68.809509%, 95.153809%)" offset="0.921875"/><stop stop-opacity="1" stop-color="rgb(100%, 68.569946%, 95.387268%)" offset="0.929688"/><stop stop-opacity="1" stop-color="rgb(100%, 68.330383%, 95.619202%)" offset="0.9375"/><stop stop-opacity="1" stop-color="rgb(100%, 68.092346%, 95.852661%)" offset="0.945312"/><stop stop-opacity="1" stop-color="rgb(100%, 67.852783%, 96.086121%)" offset="0.953125"/><stop stop-opacity="1" stop-color="rgb(100%, 67.61322%, 96.318054%)" offset="0.960937"/><stop stop-opacity="1" stop-color="rgb(100%, 67.375183%, 96.551514%)" offset="0.96875"/><stop stop-opacity="1" stop-color="rgb(100%, 67.13562%, 96.783447%)" offset="0.976563"/><stop stop-opacity="1" stop-color="rgb(100%, 66.896057%, 97.016907%)" offset="0.984375"/><stop stop-opacity="1" stop-color="rgb(100%, 66.65802%, 97.24884%)" offset="0.992188"/><stop stop-opacity="1" stop-color="rgb(100%, 66.418457%, 97.4823%)" offset="1"/></linearGradient><clipPath id="f7f5cba2b8"><rect x="0" width="100" y="0" height="88"/></clipPath><clipPath id="d2f10f4716"><path d="M 123 129 L 204.863281 129 L 204.863281 216 L 123 216 Z M 123 129 " clip-rule="nonzero"/></clipPath></defs><g clip-path="url(#84c3d2d108)"><g clip-path="url(#2631b91ce9)"><path fill="url(#0893b75847)" d="M 128.652344 94.253906 L 128.652344 203.898438 L 253.644531 203.898438 L 253.644531 94.253906 Z M 128.652344 94.253906 " fill-rule="nonzero"/></g></g><g mask="url(#b27f243a73)"><g transform="matrix(1, 0, 0, 1, 141, 116)"><g clip-path="url(#f7f5cba2b8)"><g clip-path="url(#14018af8d7)"><g clip-path="url(#d305872411)"><path fill="url(#0f0c2f317b)" d="M 0.410156 0.640625 L 0.410156 87.898438 L 99.886719 87.898438 L 99.886719 0.640625 Z M 0.410156 0.640625 " fill-rule="nonzero"/></g></g></g></g></g><g clip-path="url(#d2f10f4716)"><path fill="#ffffff" d="M 178.683594 210.507812 L 178.683594 190.398438 C 178.683594 187.722656 180.847656 185.554688 183.523438 185.554688 L 200.023438 185.554688 C 202.695312 185.554688 204.863281 183.382812 204.863281 180.707031 L 204.863281 160.996094 C 204.863281 158.320312 202.695312 156.148438 200.023438 156.148438 C 200.023438 156.148438 198.191406 156.148438 195.746094 156.148438 C 193.300781 156.148438 190.246094 156.148438 187.800781 156.148438 C 185.191406 155.722656 181.523438 155.722656 180.296875 154.5 C 175.40625 147.15625 185.191406 128.796875 170.011719 129.429688 C 167.820312 129.417969 165.085938 129.414062 162.898438 129.414062 C 160.707031 129.414062 159.066406 129.414062 159.066406 129.414062 C 156.394531 129.414062 154.226562 131.582031 154.226562 134.257812 L 154.226562 151.304688 C 154.226562 152.644531 153.683594 153.855469 152.808594 154.730469 C 151.933594 155.609375 150.722656 156.152344 149.386719 156.175781 C 141.167969 159.394531 121.605469 152.050781 123.796875 166.148438 C 123.796875 169.027344 123.796875 172.675781 123.796875 175.597656 C 123.796875 178.519531 123.796875 180.707031 123.796875 180.707031 C 123.796875 183.382812 125.960938 185.554688 128.636719 185.554688 C 128.636719 185.554688 137.859375 185.554688 144.003906 185.554688 C 145.542969 185.554688 146.886719 185.554688 147.847656 185.554688 C 149.730469 185.09375 152.175781 186.320312 153.398438 187.542969 C 158.289062 197.335938 148.507812 219.363281 166.453125 215.355469 C 167.683594 215.355469 168.917969 215.355469 170.011719 215.355469 C 172.199219 215.355469 173.839844 215.355469 173.839844 215.355469 C 176.515625 215.355469 178.683594 213.183594 178.683594 210.507812 Z M 178.683594 210.507812 " fill-opacity="1" fill-rule="nonzero"/></g><path fill="#ffffff" d="M 200.386719 176.574219 C 200.78125 177.773438 200.589844 179.117188 199.828125 180.136719 C 199.039062 181.1875 197.746094 181.675781 196.507812 181.949219 C 195.019531 182.273438 193.46875 182.375 191.949219 182.492188 C 190.25 182.621094 188.546875 182.691406 186.839844 182.707031 C 184.898438 182.722656 182.960938 182.664062 181.023438 182.53125 C 180.25 182.480469 180.253906 183.679688 181.023438 183.730469 C 184.714844 183.980469 188.417969 183.96875 192.109375 183.679688 C 193.757812 183.550781 195.457031 183.441406 197.070312 183.050781 C 198.480469 182.707031 199.855469 182.058594 200.753906 180.882812 C 201.753906 179.585938 202.054688 177.808594 201.546875 176.253906 C 201.304688 175.523438 200.144531 175.835938 200.386719 176.574219 Z M 200.386719 176.574219 " fill-opacity="1" fill-rule="nonzero"/><path fill="#ffffff" d="M 193.183594 179.3125 C 190.066406 179.773438 186.90625 179.894531 183.757812 179.703125 C 182.988281 179.65625 182.992188 180.855469 183.757812 180.902344 C 187.015625 181.101562 190.277344 180.949219 193.503906 180.472656 C 193.824219 180.425781 194.003906 180.019531 193.921875 179.734375 C 193.828125 179.390625 193.507812 179.265625 193.183594 179.3125 Z M 193.183594 179.3125 " fill-opacity="1" fill-rule="nonzero"/><path fill="#ffffff" d="M 156.785156 144.097656 C 156.179688 147.554688 157.105469 151.09375 156.375 154.527344 C 156.078125 155.90625 155.53125 157.265625 154.511719 158.265625 C 153.402344 159.355469 151.875 159.796875 150.375 160.007812 C 148.34375 160.296875 146.253906 160.304688 144.210938 160.222656 C 143.4375 160.191406 143.4375 161.390625 144.210938 161.421875 C 146.160156 161.503906 148.132812 161.476562 150.074219 161.25 C 151.734375 161.054688 153.414062 160.660156 154.765625 159.625 C 157.371094 157.628906 157.894531 154.101562 157.847656 151.027344 C 157.8125 148.828125 157.558594 146.601562 157.945312 144.417969 C 158.078125 143.660156 156.921875 143.335938 156.785156 144.097656 Z M 156.785156 144.097656 " fill-opacity="1" fill-rule="nonzero"/><path fill="#ffffff" d="M 158.640625 157.648438 C 159.058594 160.015625 156.929688 161.859375 154.890625 162.492188 C 152.304688 163.296875 149.554688 162.871094 146.898438 163.027344 C 146.128906 163.070312 146.125 164.273438 146.898438 164.226562 C 149.871094 164.054688 153.003906 164.570312 155.84375 163.425781 C 158.296875 162.441406 160.289062 160.109375 159.796875 157.328125 C 159.660156 156.566406 158.503906 156.890625 158.640625 157.648438 Z M 158.640625 157.648438 " fill-opacity="1" fill-rule="nonzero"/><g fill="#ffffff" fill-opacity="1"><g transform="translate(116.458987, 232.784121)"><g><path d="M 22.75 0 L 17.921875 0 L 17.921875 -11.4375 L 7.171875 -11.4375 L 7.171875 0 L 2.34375 0 L 2.34375 -23.484375 C 2.34375 -23.503906 2.300781 -23.675781 2.21875 -24 C 2.132812 -24.332031 2.050781 -24.671875 1.96875 -25.015625 C 1.894531 -25.367188 1.859375 -25.570312 1.859375 -25.625 L 7.171875 -25.625 L 7.171875 -14.90625 L 17.921875 -14.90625 L 17.921875 -25.625 L 22.75 -25.625 Z M 22.75 0 "/></g></g></g><g fill="#ffffff" fill-opacity="1"><g transform="translate(141.443349, 232.784121)"><g><path d="M 16.3125 -10.296875 C 16.3125 -8.890625 15.71875 -8.1875 14.53125 -8.1875 L 5.359375 -8.1875 C 5.359375 -6.695312 5.753906 -5.363281 6.546875 -4.1875 C 7.335938 -3.007812 8.445312 -2.421875 9.875 -2.421875 C 10.59375 -2.421875 11.34375 -2.59375 12.125 -2.9375 C 12.90625 -3.289062 13.566406 -3.734375 14.109375 -4.265625 L 15.890625 -1.46875 C 15.171875 -0.863281 14.21875 -0.398438 13.03125 -0.078125 C 11.851562 0.234375 10.726562 0.390625 9.65625 0.390625 C 6.945312 0.390625 4.8125 -0.421875 3.25 -2.046875 C 1.6875 -3.671875 0.90625 -5.847656 0.90625 -8.578125 C 0.90625 -11.160156 1.632812 -13.359375 3.09375 -15.171875 C 4.550781 -16.984375 6.539062 -17.890625 9.0625 -17.890625 C 11.351562 -17.890625 13.132812 -17.195312 14.40625 -15.8125 C 15.675781 -14.4375 16.3125 -12.597656 16.3125 -10.296875 Z M 11.9375 -11.71875 C 11.9375 -12.675781 11.691406 -13.460938 11.203125 -14.078125 C 10.710938 -14.703125 10.007812 -15.015625 9.09375 -15.015625 C 8.164062 -15.015625 7.335938 -14.582031 6.609375 -13.71875 C 5.890625 -12.851562 5.503906 -11.929688 5.453125 -10.953125 L 11.34375 -10.953125 C 11.738281 -10.953125 11.9375 -11.207031 11.9375 -11.71875 Z M 11.9375 -11.71875 "/></g></g></g><g fill="#ffffff" fill-opacity="1"><g transform="translate(158.729443, 232.784121)"><g><path d="M 18.0625 -0.671875 C 17.851562 -0.617188 17.53125 -0.519531 17.09375 -0.375 C 16.664062 -0.238281 16.3125 -0.128906 16.03125 -0.046875 C 15.75 0.0234375 15.414062 0.0976562 15.03125 0.171875 C 14.644531 0.242188 14.300781 0.28125 14 0.28125 C 13.300781 0.28125 12.707031 0.0664062 12.21875 -0.359375 C 11.726562 -0.796875 11.398438 -1.363281 11.234375 -2.0625 C 10.066406 -0.425781 8.316406 0.390625 5.984375 0.390625 C 4.554688 0.390625 3.375 -0.00390625 2.4375 -0.796875 C 1.507812 -1.597656 1.046875 -2.695312 1.046875 -4.09375 C 1.046875 -5.3125 1.335938 -6.335938 1.921875 -7.171875 C 2.503906 -8.015625 3.296875 -8.640625 4.296875 -9.046875 C 5.304688 -9.453125 6.3125 -9.742188 7.3125 -9.921875 C 8.3125 -10.097656 9.382812 -10.1875 10.53125 -10.1875 L 10.53125 -12.453125 C 10.53125 -13.367188 10.332031 -14.003906 9.9375 -14.359375 C 9.539062 -14.722656 8.898438 -14.90625 8.015625 -14.90625 C 6.773438 -14.90625 5.28125 -14.226562 3.53125 -12.875 L 1.8125 -15.640625 C 3.9375 -17.085938 6.296875 -17.8125 8.890625 -17.8125 C 10.753906 -17.8125 12.191406 -17.332031 13.203125 -16.375 C 14.222656 -15.414062 14.734375 -14.003906 14.734375 -12.140625 L 14.734375 -4.546875 C 14.734375 -3.378906 15.015625 -2.796875 15.578125 -2.796875 C 15.765625 -2.796875 16.347656 -2.9375 17.328125 -3.21875 Z M 10.53125 -6.515625 L 10.53125 -7.3125 C 7.125 -7.3125 5.421875 -6.378906 5.421875 -4.515625 C 5.421875 -4.003906 5.625 -3.59375 6.03125 -3.28125 C 6.445312 -2.976562 6.921875 -2.828125 7.453125 -2.828125 C 8.359375 -2.828125 9.097656 -3.207031 9.671875 -3.96875 C 10.242188 -4.726562 10.53125 -5.578125 10.53125 -6.515625 Z M 10.53125 -6.515625 "/></g></g></g><g fill="#ffffff" fill-opacity="1"><g transform="translate(176.015536, 232.784121)"><g><path d="M 6.46875 0 L 2.203125 0 L 2.203125 -25.03125 C 2.203125 -25.050781 2.171875 -25.203125 2.109375 -25.484375 C 2.054688 -25.765625 1.992188 -26.066406 1.921875 -26.390625 C 1.847656 -26.710938 1.8125 -26.890625 1.8125 -26.921875 L 6.46875 -26.921875 Z M 6.46875 0 "/></g></g></g><g fill="#ffffff" fill-opacity="1"><g transform="translate(184.798556, 232.784121)"><g><path d="M 11.4375 -0.390625 C 9.875 0.0976562 8.5 0.34375 7.3125 0.34375 C 5.800781 0.34375 4.691406 -0.00390625 3.984375 -0.703125 C 3.285156 -1.398438 2.9375 -2.519531 2.9375 -4.0625 L 2.9375 -14.625 L 0.0625 -14.625 L 0.0625 -16.9375 C 0.957031 -16.957031 1.753906 -17.269531 2.453125 -17.875 C 3.148438 -18.488281 3.671875 -19.179688 4.015625 -19.953125 C 4.367188 -20.722656 4.648438 -21.5625 4.859375 -22.46875 L 7.90625 -22.46875 C 7.4375 -20.488281 7.203125 -18.796875 7.203125 -17.390625 L 11.4375 -17.390625 L 10.609375 -14.625 L 7.203125 -14.625 L 7.203125 -5 C 7.203125 -3.4375 7.695312 -2.65625 8.6875 -2.65625 C 9.21875 -2.65625 9.972656 -2.773438 10.953125 -3.015625 Z M 11.4375 -0.390625 "/></g></g></g><g fill="#ffffff" fill-opacity="1"><g transform="translate(196.240976, 232.784121)"><g><path d="M 16.828125 0 L 12.59375 0 L 12.59375 -11.34375 C 12.59375 -11.988281 12.554688 -12.515625 12.484375 -12.921875 C 12.421875 -13.335938 12.210938 -13.710938 11.859375 -14.046875 C 11.515625 -14.390625 11.023438 -14.5625 10.390625 -14.5625 C 9.878906 -14.5625 9.21875 -14.34375 8.40625 -13.90625 C 7.601562 -13.476562 7.003906 -13.054688 6.609375 -12.640625 L 6.609375 0 L 2.453125 0 L 2.453125 -25.03125 L 2.03125 -26.921875 L 6.609375 -26.921875 L 6.609375 -15.75 C 8.335938 -17.175781 10.019531 -17.890625 11.65625 -17.890625 C 13.539062 -17.890625 14.875 -17.363281 15.65625 -16.3125 C 16.4375 -15.257812 16.828125 -13.742188 16.828125 -11.765625 Z M 16.828125 0 "/></g></g></g><g fill="#ffffff" fill-opacity="1"><g transform="translate(215.381653, 232.784121)"><g><path d="M 5.59375 -4.203125 C 6.132812 -3.660156 6.40625 -3.015625 6.40625 -2.265625 C 6.40625 -1.523438 6.140625 -0.890625 5.609375 -0.359375 C 5.085938 0.160156 4.453125 0.421875 3.703125 0.421875 C 2.960938 0.421875 2.328125 0.160156 1.796875 -0.359375 C 1.273438 -0.890625 1.015625 -1.523438 1.015625 -2.265625 C 1.015625 -3.015625 1.273438 -3.65625 1.796875 -4.1875 C 2.328125 -4.726562 2.960938 -5 3.703125 -5 C 4.453125 -5 5.082031 -4.734375 5.59375 -4.203125 Z M 5.59375 -4.203125 "/></g></g></g><g fill="#ffffff" fill-opacity="1"><g transform="translate(223.359856, 232.784121)"><g><path d="M 7.140625 0 L 2.3125 0 L 2.3125 -23.484375 C 2.3125 -23.503906 2.269531 -23.675781 2.1875 -24 C 2.101562 -24.332031 2.019531 -24.671875 1.9375 -25.015625 C 1.851562 -25.367188 1.8125 -25.570312 1.8125 -25.625 L 7.140625 -25.625 Z M 7.140625 0 "/></g></g></g><g fill="#ffffff" fill-opacity="1"><g transform="translate(232.737739, 232.784121)"><g><path d="M 25.125 -12.78125 C 25.125 -8.925781 24.015625 -5.765625 21.796875 -3.296875 C 19.585938 -0.835938 16.582031 0.390625 12.78125 0.390625 C 8.96875 0.390625 5.992188 -0.847656 3.859375 -3.328125 C 1.734375 -5.816406 0.671875 -8.988281 0.671875 -12.84375 C 0.671875 -16.71875 1.742188 -19.878906 3.890625 -22.328125 C 6.035156 -24.773438 9.007812 -26 12.8125 -26 C 16.707031 -26 19.734375 -24.78125 21.890625 -22.34375 C 24.046875 -19.90625 25.125 -16.71875 25.125 -12.78125 Z M 19.953125 -12.640625 C 19.953125 -13.867188 19.832031 -15.035156 19.59375 -16.140625 C 19.363281 -17.253906 18.988281 -18.316406 18.46875 -19.328125 C 17.957031 -20.347656 17.21875 -21.160156 16.25 -21.765625 C 15.289062 -22.378906 14.15625 -22.6875 12.84375 -22.6875 C 11.5625 -22.6875 10.441406 -22.398438 9.484375 -21.828125 C 8.523438 -21.253906 7.789062 -20.484375 7.28125 -19.515625 C 6.769531 -18.546875 6.394531 -17.519531 6.15625 -16.4375 C 5.925781 -15.351562 5.8125 -14.203125 5.8125 -12.984375 C 5.8125 -11.742188 5.925781 -10.570312 6.15625 -9.46875 C 6.394531 -8.363281 6.769531 -7.300781 7.28125 -6.28125 C 7.789062 -5.269531 8.53125 -4.457031 9.5 -3.84375 C 10.46875 -3.238281 11.609375 -2.9375 12.921875 -2.9375 C 14.203125 -2.9375 15.316406 -3.222656 16.265625 -3.796875 C 17.222656 -4.367188 17.957031 -5.140625 18.46875 -6.109375 C 18.988281 -7.078125 19.363281 -8.101562 19.59375 -9.1875 C 19.832031 -10.269531 19.953125 -11.421875 19.953125 -12.640625 Z M 19.953125 -12.640625 "/></g></g></g><g fill="#ffffff" fill-opacity="1"><g transform="translate(140.062495, 254.784036)"><g><path d="M 9.40625 0 L 8.015625 0 L 8.015625 -5.15625 L 2.703125 -5.15625 L 2.703125 0 L 1.3125 0 L 1.3125 -9.9375 C 1.3125 -9.9375 1.289062 -10.007812 1.25 -10.15625 C 1.21875 -10.3125 1.179688 -10.472656 1.140625 -10.640625 C 1.109375 -10.804688 1.09375 -10.898438 1.09375 -10.921875 L 2.703125 -10.921875 L 2.703125 -6.1875 L 8.015625 -6.1875 L 8.015625 -10.921875 L 9.40625 -10.921875 Z M 9.40625 0 "/></g></g></g><g fill="#ffffff" fill-opacity="1"><g transform="translate(150.772482, 254.784036)"><g><path d="M 7.640625 0 L 1.296875 0 L 1.296875 -9.9375 C 1.296875 -9.9375 1.273438 -10.007812 1.234375 -10.15625 C 1.203125 -10.3125 1.164062 -10.472656 1.125 -10.640625 C 1.09375 -10.804688 1.078125 -10.898438 1.078125 -10.921875 L 7.640625 -10.921875 L 7.640625 -9.890625 L 2.6875 -9.890625 L 2.6875 -6.125 L 6.53125 -6.125 L 6.53125 -5.09375 L 2.6875 -5.09375 L 2.6875 -1.03125 L 7.640625 -1.03125 Z M 7.640625 0 "/></g></g></g><g fill="#ffffff" fill-opacity="1"><g transform="translate(159.007478, 254.784036)"><g><path d="M 9.203125 0 L 7.671875 0 L 6.40625 -3.75 L 2.8125 -3.75 L 1.53125 0 L 0.265625 0 L 4.0625 -10.921875 L 5.4375 -10.921875 Z M 6.0625 -4.765625 L 4.625 -9.09375 L 3.15625 -4.765625 Z M 6.0625 -4.765625 "/></g></g></g><g fill="#ffffff" fill-opacity="1"><g transform="translate(168.472474, 254.784036)"><g><path d="M 7.28125 0 L 1.296875 0 L 1.296875 -9.9375 C 1.296875 -9.9375 1.273438 -10.007812 1.234375 -10.15625 C 1.203125 -10.3125 1.164062 -10.472656 1.125 -10.640625 C 1.09375 -10.804688 1.078125 -10.898438 1.078125 -10.921875 L 2.6875 -10.921875 L 2.6875 -1.03125 L 7.28125 -1.03125 Z M 7.28125 0 "/></g></g></g><g fill="#ffffff" fill-opacity="1"><g transform="translate(176.182461, 254.784036)"><g><path d="M 5.03125 0 L 3.59375 0 L 3.59375 -9.890625 L 0.359375 -9.890625 L 0.359375 -10.921875 L 8.3125 -10.921875 L 8.3125 -9.890625 L 5.03125 -9.890625 Z M 5.03125 0 "/></g></g></g><g fill="#ffffff" fill-opacity="1"><g transform="translate(184.852447, 254.784036)"><g><path d="M 9.40625 0 L 8.015625 0 L 8.015625 -5.15625 L 2.703125 -5.15625 L 2.703125 0 L 1.3125 0 L 1.3125 -9.9375 C 1.3125 -9.9375 1.289062 -10.007812 1.25 -10.15625 C 1.21875 -10.3125 1.179688 -10.472656 1.140625 -10.640625 C 1.109375 -10.804688 1.09375 -10.898438 1.09375 -10.921875 L 2.703125 -10.921875 L 2.703125 -6.1875 L 8.015625 -6.1875 L 8.015625 -10.921875 L 9.40625 -10.921875 Z M 9.40625 0 "/></g></g></g><g fill="#ffffff" fill-opacity="1"><g transform="translate(195.562434, 254.784036)"><g/></g></g><g fill="#ffffff" fill-opacity="1"><g transform="translate(199.012427, 254.784036)"><g><path d="M 8.453125 -1.875 L 9.109375 -0.875 C 8.703125 -0.539062 8.1875 -0.28125 7.5625 -0.09375 C 6.9375 0.09375 6.34375 0.1875 5.78125 0.1875 C 4.195312 0.1875 2.953125 -0.359375 2.046875 -1.453125 C 1.140625 -2.546875 0.6875 -3.890625 0.6875 -5.484375 C 0.6875 -7.109375 1.140625 -8.441406 2.046875 -9.484375 C 2.960938 -10.535156 4.21875 -11.0625 5.8125 -11.0625 C 6.394531 -11.0625 7 -10.957031 7.625 -10.75 C 8.25 -10.550781 8.734375 -10.265625 9.078125 -9.890625 L 8.296875 -9.015625 C 8.015625 -9.328125 7.632812 -9.570312 7.15625 -9.75 C 6.675781 -9.925781 6.21875 -10.015625 5.78125 -10.015625 C 5.15625 -10.015625 4.609375 -9.878906 4.140625 -9.609375 C 3.671875 -9.347656 3.300781 -8.988281 3.03125 -8.53125 C 2.757812 -8.082031 2.554688 -7.59375 2.421875 -7.0625 C 2.285156 -6.539062 2.21875 -5.988281 2.21875 -5.40625 C 2.21875 -4.800781 2.285156 -4.238281 2.421875 -3.71875 C 2.554688 -3.195312 2.757812 -2.726562 3.03125 -2.3125 C 3.3125 -1.894531 3.6875 -1.5625 4.15625 -1.3125 C 4.632812 -1.0625 5.1875 -0.9375 5.8125 -0.9375 C 6.257812 -0.9375 6.726562 -1.019531 7.21875 -1.1875 C 7.71875 -1.363281 8.128906 -1.59375 8.453125 -1.875 Z M 8.453125 -1.875 "/></g></g></g><g fill="#ffffff" fill-opacity="1"><g transform="translate(208.372423, 254.784036)"><g><path d="M 9.203125 0 L 7.671875 0 L 6.40625 -3.75 L 2.8125 -3.75 L 1.53125 0 L 0.265625 0 L 4.0625 -10.921875 L 5.4375 -10.921875 Z M 6.0625 -4.765625 L 4.625 -9.09375 L 3.15625 -4.765625 Z M 6.0625 -4.765625 "/></g></g></g><g fill="#ffffff" fill-opacity="1"><g transform="translate(217.837419, 254.784036)"><g><path d="M 8.984375 0 L 7.359375 0 L 4.546875 -4.9375 C 4.316406 -4.914062 3.941406 -4.90625 3.421875 -4.90625 L 2.671875 -4.90625 L 2.671875 0 L 1.28125 0 L 1.28125 -9.9375 C 1.28125 -9.9375 1.257812 -10.007812 1.21875 -10.15625 C 1.1875 -10.3125 1.148438 -10.472656 1.109375 -10.640625 C 1.078125 -10.804688 1.0625 -10.898438 1.0625 -10.921875 L 4.3125 -10.921875 C 6.78125 -10.921875 8.015625 -9.914062 8.015625 -7.90625 C 8.015625 -7.300781 7.8125 -6.738281 7.40625 -6.21875 C 7 -5.707031 6.503906 -5.363281 5.921875 -5.1875 Z M 2.671875 -5.921875 L 3.875 -5.921875 C 4.695312 -5.921875 5.347656 -6.070312 5.828125 -6.375 C 6.316406 -6.6875 6.5625 -7.226562 6.5625 -8 C 6.5625 -8.601562 6.34375 -9.066406 5.90625 -9.390625 C 5.476562 -9.722656 4.945312 -9.890625 4.3125 -9.890625 L 2.671875 -9.890625 Z M 2.671875 -5.921875 "/></g></g></g><g fill="#ffffff" fill-opacity="1"><g transform="translate(226.702413, 254.784036)"><g><path d="M 7.640625 0 L 1.296875 0 L 1.296875 -9.9375 C 1.296875 -9.9375 1.273438 -10.007812 1.234375 -10.15625 C 1.203125 -10.3125 1.164062 -10.472656 1.125 -10.640625 C 1.09375 -10.804688 1.078125 -10.898438 1.078125 -10.921875 L 7.640625 -10.921875 L 7.640625 -9.890625 L 2.6875 -9.890625 L 2.6875 -6.125 L 6.53125 -6.125 L 6.53125 -5.09375 L 2.6875 -5.09375 L 2.6875 -1.03125 L 7.640625 -1.03125 Z M 7.640625 0 "/></g></g></g></svg>