<?xml version="1.0" standalone="no"?>
<!DOCTYPE svg PUBLIC "-//W3C//DTD SVG 20010904//EN"
 "http://www.w3.org/TR/2001/REC-SVG-20010904/DTD/svg10.dtd">
<svg version="1.0" xmlns="http://www.w3.org/2000/svg"
 width="1280.000000pt" height="690.000000pt" viewBox="0 0 1280.000000 690.000000"
 preserveAspectRatio="xMidYMid meet">
<metadata>
Created by potrace 1.15, written by Peter Selinger 2001-2017
</metadata>
<g transform="translate(0.000000,690.000000) scale(0.100000,-0.100000)"
fill="#000000" stroke="none">
<path d="M4380 6519 c-333 -37 -613 -165 -905 -411 -218 -184 -451 -486 -526
-681 -19 -50 -25 -58 -43 -53 -158 39 -477 57 -656 37 -205 -24 -412 -81 -561
-157 -70 -35 -246 -150 -287 -188 -13 -11 -27 -21 -30 -21 -4 0 -6 -3 -5 -6 5
-15 -108 -111 -123 -105 -8 3 -12 2 -9 -4 3 -5 -5 -14 -17 -21 -49 -26 -217
-170 -295 -253 -197 -208 -355 -517 -443 -865 -149 -589 -81 -1084 217 -1586
108 -183 212 -315 377 -481 204 -204 374 -334 631 -479 436 -248 1012 -441
1764 -590 240 -47 2061 -339 2068 -331 10 10 699 1684 760 1846 184 490 322
974 388 1355 40 235 55 415 55 675 0 221 -2 254 -30 418 -33 193 -61 307 -115
462 -37 106 -145 346 -175 390 -52 74 -132 205 -145 236 -18 44 -255 286 -350
359 -69 53 -330 215 -346 215 -5 0 -46 18 -91 39 -94 45 -268 102 -458 152
-167 43 -484 67 -650 48z"/>
<path d="M6810 2880 l0 -670 195 0 195 0 0 275 0 275 85 0 85 0 0 -275 0 -275
190 0 190 0 0 670 0 670 -187 -2 -188 -3 -3 -212 -2 -213 -85 0 -85 0 0 215 0
215 -195 0 -195 0 0 -670z"/>
<path d="M7840 2880 l0 -670 390 0 390 0 0 165 0 165 -205 0 -205 0 0 85 0 85
203 2 202 3 3 173 2 172 -205 0 -205 0 0 70 0 70 205 0 205 0 0 175 0 175
-390 0 -390 0 0 -670z"/>
<path d="M9025 3538 c-5 -15 -270 -1236 -280 -1290 l-7 -38 170 0 c126 0 173
3 179 13 4 6 21 50 38 97 l30 85 93 3 93 3 13 -33 c7 -18 21 -63 31 -100 l18
-68 179 0 c166 0 179 1 174 18 -3 9 -26 116 -51 237 -68 327 -212 972 -230
1033 l-16 52 -215 0 c-163 0 -216 -3 -219 -12z m239 -740 c7 -36 6 -38 -19
-38 -20 0 -25 4 -21 18 2 9 8 37 12 62 6 39 8 42 14 20 4 -14 10 -42 14 -62z"/>
<path d="M9830 2880 l0 -670 365 0 365 0 0 165 0 165 -165 0 -165 0 0 505 0
505 -200 0 -200 0 0 -670z"/>
<path d="M10640 3380 l0 -170 125 0 125 0 0 -500 0 -500 180 0 180 0 0 500 0
500 125 0 125 0 0 170 0 170 -430 0 -430 0 0 -170z"/>
<path d="M11580 2880 l0 -670 190 0 190 0 2 273 3 272 88 3 87 3 0 -276 0
-275 190 0 190 0 -2 668 -3 667 -187 3 -188 2 0 -215 0 -215 -90 0 -90 0 0
215 0 215 -190 0 -190 0 0 -670z"/>
</g>
</svg>
